<svg width="48" height="43" viewBox="0 0 48 43" fill="none" xmlns="http://www.w3.org/2000/svg">
<rect x="1.72107" y="1.76318" width="44.5579" height="39.4737" rx="8" stroke="white" stroke-width="2"/>
<path d="M34.9032 32.4727L33.629 31.0856C33.7152 29.241 33.8574 20.2014 28.8168 14.7137C24.4551 9.96538 17.5399 9.45276 14.7691 9.45276C13.976 9.45276 13.4994 9.49374 13.4796 9.49548C13.1676 9.52291 12.9197 9.79242 12.8949 10.1321C12.863 10.5659 12.1739 20.8259 17.6882 26.8287C22.05 31.577 28.9658 32.0893 31.7366 32.0893C32.1698 32.0893 32.5041 32.0771 32.7259 32.066L34.0013 33.4545C34.1257 33.5903 34.2891 33.658 34.4524 33.658C34.6158 33.658 34.7791 33.5903 34.9035 33.4545C35.1524 33.1833 35.1524 32.7439 34.9032 32.4727ZM18.5901 25.8465C14.2271 21.0968 14.0877 13.1071 14.1419 10.8517C14.3161 10.8461 14.527 10.8423 14.7691 10.8423C17.381 10.8423 23.8901 11.3153 27.9146 15.6962C31.7825 19.9069 32.3306 26.662 32.3676 29.712L27.6597 24.5872L28.2525 19.0564C28.2933 18.6754 28.0425 18.3305 27.6929 18.2861C27.3401 18.2423 27.0261 18.5146 26.9853 18.8952L26.5096 23.3348L23.2865 19.8263L22.7882 15.7205C22.7419 15.3402 22.4197 15.0714 22.072 15.1228C21.7226 15.1732 21.4767 15.5222 21.5229 15.9025L21.803 18.2117L18.0656 14.1427C17.8168 13.8715 17.4123 13.8715 17.1634 14.1427C16.9143 14.414 16.9143 14.8537 17.1634 15.1249L20.9005 19.1932L18.7799 18.8883C18.4306 18.8383 18.1097 19.1057 18.0637 19.486C18.0175 19.8663 18.2634 20.2153 18.6128 20.2657L22.3837 20.8082L25.6068 24.3166L21.529 24.8344C21.179 24.8789 20.9286 25.2238 20.9694 25.6048C21.0074 25.9587 21.283 26.2191 21.6024 26.2191C21.6269 26.2191 21.6518 26.2178 21.677 26.2143L26.7572 25.5693L31.4692 30.699C28.7039 30.6653 22.4838 30.0853 18.5901 25.8465Z" fill="white"/>
</svg>
